<?xml version="1.0" encoding="UTF-8"?>
<svg width="472px" height="292px" viewBox="0 0 472 292" version="1.1" xmlns="http://www.w3.org/2000/svg" xmlns:xlink="http://www.w3.org/1999/xlink">
    <!-- Generator: Sketch 62 (91390) - https://sketch.com -->
    <title>Dark logo Copy 2</title>
    <desc>Created with Sketch.</desc>
    <g id="Dark-logo-Copy-2" stroke="none" stroke-width="1" fill="none" fill-rule="evenodd">
        <g id="Blind-vectoriel-logo" fill="#363636" fill-rule="nonzero" stroke="#FFFFFF" stroke-width="6">
            <path d="M51.9192213,146.21151 C54.7330653,149.921138 56.1997167,154.543441 56.1997167,160.122616 C56.1997167,164.374062 55.5014367,167.969213 54.1780186,170.925902 C52.7909549,174.024784 50.8567203,176.516325 48.4017029,178.421725 C46.0076267,180.279827 43.1378076,181.632249 39.7756938,182.445818 C36.6427359,183.203936 33.2401668,183.588556 29.5665722,183.588556 L-3,183.588556 L-3,105 L26.1473088,105 C30.6975734,105 34.5942214,105.488151 37.843034,106.429038 C41.3174487,107.435262 44.1378634,108.893369 46.3353649,110.748513 C48.6439391,112.697425 50.3187425,115.035615 51.3713612,117.754899 C52.3703182,120.335556 52.8810198,123.1651 52.8810198,126.247956 C52.8810198,129.200845 52.4698574,131.739825 51.695553,133.874474 C50.8879691,136.10087 49.8229347,137.952542 48.5321297,139.448759 C47.8702636,140.21595 47.1612875,140.899491 46.4062579,141.50074 C48.6334045,142.724608 50.4646333,144.293855 51.9192213,146.21151 Z M24.1359773,137.059946 C27.39823,137.059946 30.1401589,136.798203 32.3570875,136.242589 C34.2884014,135.758556 35.8647988,135.079596 37.0488436,134.135392 C38.0822028,133.311352 38.8283293,132.302721 39.2750122,131.100739 C39.7990774,129.690529 40.0424929,128.07048 40.0424929,126.247956 C40.0424929,124.46977 39.7939946,122.953832 39.2179755,121.720176 C38.7266723,120.667956 37.9304035,119.832876 36.8622515,119.185924 C35.5244109,118.375629 33.7712881,117.82301 31.6303829,117.460657 C29.1851497,117.046796 26.1836829,116.847411 22.6274788,116.847411 L9.83852691,116.847411 L9.83852691,137.059946 L24.1359773,137.059946 Z M24.2365439,171.741144 C27.8531405,171.741144 31.001788,171.582432 33.6820517,171.258703 C35.9979303,170.978986 37.9238201,170.439378 39.4341926,169.57015 C40.7056134,168.838439 41.6557592,167.797289 42.2910919,166.452685 C43.0437921,164.859688 43.3611898,162.739003 43.3611898,160.122616 C43.3611898,157.705335 43.0258948,155.7329 42.2175024,154.247151 C41.4949455,152.919159 40.4571021,151.89562 39.1089208,151.171579 C37.5109224,150.313373 35.5935516,149.746615 33.3704122,149.432314 C30.8811854,149.080393 28.1045895,148.907357 25.0410765,148.907357 L9.83852691,148.907357 L9.83852691,171.741144 L24.2365439,171.741144 Z M64.0779037,183.588556 L64.0779037,105 L76.111898,105 L76.111898,183.588556 L64.0779037,183.588556 Z M86.101983,105 L98.7393768,105 L98.7393768,119.972752 L86.101983,119.972752 L86.101983,105 Z M86.4036827,183.588556 L86.4036827,125.365123 L98.4376771,125.365123 L98.4376771,183.588556 L86.4036827,183.588556 Z M119.858357,183.588556 L107.824363,183.588556 L107.824363,125.365123 L119.858357,125.365123 L119.858357,128.849581 C120.814961,128.113797 121.782536,127.440506 122.760695,126.829224 C125.783057,124.940454 129.404948,123.953678 133.652975,123.953678 C137.275925,123.953678 140.63229,124.586987 143.725824,125.835051 C147.001597,127.156639 149.780825,129.435462 152.026868,132.732538 C153.592163,135.045043 154.496515,137.425654 154.784449,139.858586 C155.032449,141.95408 155.157224,144.138334 155.157224,146.411444 L155.157224,183.588556 L143.123229,183.588556 L143.123229,146.512262 C143.123229,142.742233 142.445833,139.823759 140.757444,137.912758 C139.130167,136.070928 136.332453,135.39782 132.647309,135.39782 C131.153161,135.39782 129.789315,135.612701 128.560645,136.067908 C127.304284,136.533373 126.168924,137.146348 125.158096,137.913207 C124.16181,138.669034 123.311425,139.530906 122.611166,140.502914 C121.913351,141.47153 121.373903,142.492734 120.998066,143.569235 C120.479813,145.012765 120.161512,146.37331 120.048268,147.678866 C119.921075,149.145231 119.858357,150.739133 119.858357,152.46049 L119.858357,183.588556 Z M203.966006,179.489628 C202.810597,180.421717 201.581537,181.233805 200.279279,181.926523 C198.433949,182.908121 196.531746,183.662106 194.573519,184.190636 C192.564677,184.732827 190.594134,185 188.66289,185 C183.924146,185 179.912371,184.170305 176.607454,182.589023 C173.221099,180.968776 170.437042,178.744406 168.244397,175.929276 C166.093964,173.168343 164.515168,169.902355 163.533753,166.118264 C162.601325,162.523059 162.130312,158.676619 162.130312,154.577657 C162.130312,150.668668 162.637963,146.904863 163.648829,143.28562 C164.69511,139.539584 166.292511,136.267235 168.42166,133.458734 C170.599572,130.585912 173.347167,128.282924 176.672137,126.558822 C179.979284,124.843961 183.869767,123.953678 188.36119,123.953678 C192.504157,123.953678 196.478623,124.875533 200.283082,126.725865 C201.605763,127.369163 202.833407,128.1166 203.966006,128.968185 L203.966006,105 L216,105 L216,183.588556 L203.966006,183.588556 L203.966006,179.489628 Z M175.291737,147.55062 C174.679965,150.157138 174.44176,152.963338 174.566572,156.089918 C174.566572,158.997982 174.947821,161.569312 175.747688,163.796708 C176.507424,165.91235 177.550496,167.712214 178.902403,169.180432 C180.215099,170.606067 181.745141,171.691386 183.495765,172.431773 C185.28505,173.18851 187.243639,173.555858 189.366856,173.555858 C191.665059,173.555858 193.724103,173.110497 195.532772,172.176434 C197.332667,171.246903 198.833447,169.976512 200.033489,168.363351 C201.304321,166.655029 202.259232,164.622761 202.923042,162.279161 C203.622596,159.809369 203.966006,157.14076 203.966006,154.275204 C203.966006,151.623969 203.609524,149.107472 202.888143,146.727 C202.1938,144.435754 201.20472,142.429153 199.90211,140.717026 C198.656001,139.079163 197.133495,137.773729 195.333451,136.802057 C193.574591,135.852616 191.582182,135.39782 189.366856,135.39782 C186.778507,135.39782 184.535059,135.872479 182.657561,136.896607 C180.797742,137.911091 179.266679,139.29625 178.063335,141.050935 C176.787495,142.911332 175.87129,145.081378 175.291737,147.55062 Z" id="Blind"></path>
            <g id="Group" transform="translate(217.000000, 0.000000)">
                <path d="M219.864579,240.438238 C219.008989,244.586176 216.949047,248.291011 214.06537,251.172209 C211.179127,254.055973 207.468376,256.113806 203.318999,256.967848 C199.502739,257.753327 195.309336,257.525387 191.044951,255.95276 C185.686465,253.935429 181.283437,249.599882 179.272403,244.267492 C178.586298,242.364255 178.141546,240.502237 177.91799,238.715325 C176.546688,227.194289 170.660918,216.708667 162.452801,208.507603 L144.025216,190.095855 C137.6391,183.715228 129.784251,178.880671 121.233684,176.396923 C117.025531,184.151895 114.922966,193.040045 114.922966,201.979703 L114.922966,228.019175 C114.922966,239.570846 118.176828,251.204309 125.38715,260.271598 C126.601725,261.788511 127.588392,263.381367 128.422211,265.274785 C130.739972,270.523863 130.7359,276.621437 128.336908,281.879175 C126.435214,286.00815 123.634649,289.132874 120.385525,291.273937 C116.850195,293.603601 112.77444,294.769853 108.698139,294.769853 C104.621839,294.769853 100.546084,293.603601 97.0107533,291.273937 C93.7616296,289.132874 90.9610639,286.00815 89.0549298,281.869488 C86.6603777,276.621437 86.6563059,270.523863 88.972874,265.277491 C89.8051045,263.387684 90.8620862,261.723168 92.0028582,260.279455 C99.2194503,251.204309 102.473312,239.570846 102.473312,228.019175 L102.473312,201.979703 C102.473312,193.008329 100.355827,184.088791 96.1173024,176.316963 C87.6343899,178.816584 79.8443694,183.628111 73.502688,189.964342 L55.0751032,208.376091 C46.8791956,216.564955 40.93195,227.03088 39.6179993,238.516504 C39.458725,240.355604 39.0019943,242.271281 38.236265,244.186769 C36.2150647,249.500848 31.8916762,253.814026 26.4790448,255.822686 C22.2066605,257.391529 18.0137454,257.616777 14.2013485,256.831749 C10.0506066,255.977051 6.34339086,253.919079 3.46027394,251.038439 C0.573470053,248.154116 -1.48633172,244.445749 -2.34126627,240.299175 C-3.1276737,236.484969 -2.89952991,232.293805 -1.32503681,228.031694 C0.694004894,222.677877 5.03269879,218.278062 10.3697848,216.268714 C12.2740805,215.583408 14.1371997,215.139145 15.9251744,214.915841 C27.4569973,213.545613 37.9527306,207.664726 46.1615777,199.462933 L64.5891625,181.051185 C73.5212208,172.126803 79.4336073,160.326414 80.1003407,147.771682 C79.994882,146.299071 80.005667,144.819369 80.1328965,143.34592 C79.3320935,130.98952 73.4613779,119.395391 64.6549753,110.596557 L46.2273905,92.1848083 C38.0307441,83.9952061 27.5547039,78.0528963 16.0583922,76.739977 C14.2178958,76.5808899 12.3007527,76.1245344 10.3837864,75.3594364 C5.06547152,73.3397676 0.749567997,69.0197041 -1.26066614,63.6121357 C-2.83137051,59.3420316 -3.0568183,55.1513583 -2.270863,51.3410156 C-1.41527239,47.1930782 0.644669621,43.4882429 3.52834619,40.6070446 C6.41458993,37.7232813 10.1253403,35.6654484 14.274718,34.8114056 C18.0909776,34.0259266 22.2843805,34.2538674 26.5487655,35.8264938 C31.9072517,37.8438249 36.310279,42.1793718 38.3213138,47.5117623 C39.0074182,49.414999 39.4521706,51.2770166 39.6757268,53.0639293 C41.0470287,64.5849651 46.932798,75.070587 55.140916,83.2716509 L73.5685008,101.683399 C79.9548295,108.064239 87.8099905,112.898906 96.3606843,115.382843 C100.568015,107.628114 102.67075,98.7395902 102.67075,89.7995513 L102.67075,63.7600789 C102.67075,52.2084082 99.4168887,40.574945 92.2065662,31.5076561 C90.991992,29.990743 90.0053248,28.3978874 89.1715056,26.5044687 C86.8537443,21.2553914 86.8578161,15.1578174 89.2568086,9.90007915 C91.1585023,5.771104 93.959068,2.64637946 97.2081917,0.505316532 C100.743522,-1.82434687 104.819277,-2.9905992 108.895577,-2.9905992 C112.971878,-2.9905992 117.047633,-1.82434687 120.582963,0.505316532 C123.832087,2.64637946 126.632653,5.771104 128.538787,9.90976552 C130.933339,15.1578174 130.937411,21.2553914 128.620843,26.5017628 C127.788612,28.3915703 126.73163,30.0560861 125.590858,31.4997988 C118.374266,40.574945 115.120405,52.2084082 115.120405,63.7600789 L115.120405,89.7995513 C115.120405,98.7711806 117.23801,107.690971 121.476527,115.462962 C129.959004,112.962871 137.749213,108.151276 144.091028,101.814912 L162.518613,83.4031634 C170.714521,75.2142994 176.661767,64.748374 177.975717,53.2627502 C178.134991,51.4236502 178.591722,49.5079733 179.357452,47.5924854 C181.378652,42.2784056 185.70204,37.9652276 191.114672,35.9565682 C195.387056,34.3877251 199.579971,34.1624765 203.392368,34.9475045 C207.54311,35.8022026 211.250326,37.8601754 214.133443,40.7408146 C217.020246,43.6251376 219.080048,47.3335049 219.934983,51.4800788 C220.72139,55.2942849 220.493246,59.4854486 218.918753,63.7475604 C216.899712,69.1013767 212.561018,73.5011923 207.223932,75.5105398 C205.319636,76.195846 203.456517,76.6401086 201.668542,76.8634133 C190.136719,78.2336409 179.640986,84.1145284 171.432139,92.3163208 L153.004554,110.728069 C146.620178,117.106959 141.782319,124.952546 139.295983,133.493948 C147.058243,137.698433 155.954488,139.799084 164.902273,139.799084 L190.964143,139.799084 C202.527021,139.799084 214.171787,136.547814 223.247885,129.342886 C224.765864,128.129547 226.359828,127.143865 228.254583,126.310891 C233.506394,123.995907 239.607144,123.999974 244.86761,126.396087 C248.999944,128.296058 252.127068,131.09425 254.269853,134.3404 C256.602199,137.87372 257.769655,141.947183 257.769655,146.021139 C257.769655,150.095096 256.602199,154.168559 254.269853,157.701879 C252.127068,160.948029 248.999944,163.746221 244.857932,165.650621 C239.607144,168.042305 233.506394,168.046372 228.257287,165.732578 C226.366146,164.901191 224.700471,163.845265 223.255744,162.705653 C214.171787,155.494465 202.527021,152.243195 190.964143,152.243195 L164.902273,152.243195 C155.944742,152.243195 147.03885,154.348407 139.272206,158.56119 C141.771239,167.046788 146.590411,174.839823 152.938741,181.182697 L171.366326,199.594446 C179.562972,207.784048 190.039013,213.726358 201.535324,215.039277 C203.375821,215.198364 205.292964,215.65472 207.20993,216.419818 C212.528245,218.439486 216.844148,222.75955 218.854383,228.167118 C220.425087,232.437222 220.650535,236.627896 219.864579,240.438238 Z" id="Combined-Shape"></path>
            </g>
        </g>
    </g>
</svg>